<?xml version="1.0" encoding="utf-8"?>
<!-- Generator: Adobe Illustrator 24.1.1, SVG Export Plug-In . SVG Version: 6.00 Build 0)  -->
<svg version="1.1" id="Layer_1" xmlns="http://www.w3.org/2000/svg" xmlns:xlink="http://www.w3.org/1999/xlink" x="0px" y="0px"
	 viewBox="0 0 512 512" style="enable-background:new 0 0 512 512;" xml:space="preserve">
<style type="text/css">
	.st0{fill:#231F20;}
</style>
<g>
	<path class="st0" d="M512,26.1c-0.3-2.4-0.8-4.7-1.5-6.9v-2.3c-1.2-2.9-3-5.5-5.1-7.7c-2.2-2.1-4.7-3.7-7.4-4.9h-2.3
		c-2.4-1.8-5.1-3.1-7.9-3.9h-1.3c-2.5-0.4-5.1-0.4-7.7,0L17.6,154.2c-13.4,4.4-20.7,18.9-16.3,32.3c2.5,7.7,8.6,13.8,16.3,16.3
		l218.5,72.7l72.7,218.5c4.4,13.4,18.9,20.8,32.3,16.3c7.7-2.5,13.8-8.6,16.3-16.3L511.2,33.1C511.8,30.8,512.1,28.5,512,26.1z
		 M391.6,84.8L248.9,227.5l-142.7-47.7L391.6,84.8z M332.7,406.3L285,263.6l142.7-142.7L332.7,406.3z"/>
</g>
</svg>
